<?xml version="1.0" encoding="utf-8"?>
<!-- Generator: Adobe Illustrator 22.0.0, SVG Export Plug-In . SVG Version: 6.00 Build 0)  -->
<svg version="1.1" xmlns="http://www.w3.org/2000/svg" xmlns:xlink="http://www.w3.org/1999/xlink" x="0px" y="0px"
	viewBox="0 0 147 183.8" style="enable-background:new 0 0 147 183.8;" xml:space="preserve">
	<style type="text/css">
		.st1 {
			fill: url(#SVGID_1_);
		}

		.st2 {
			fill: url(#SVGID_2_);
		}

		.st3 {
			fill: url(#SVGID_3_);
		}

		.st4 {
			fill: url(#SVGID_4_);
		}

		.st7 {
			fill: url(#SVGID_7_);
		}

		.st9 {
			fill: url(#SVGID_9_);
		}

		.st10 {
			fill: url(#SVGID_10_);
		}

		.st53 {
			fill: #003F8A;
		}

		.st54 {
			fill: #006EDB;
		}
	</style>
	<g id="logo_x5F_onLight">
		<g>
			<linearGradient id="SVGID_1_" gradientUnits="userSpaceOnUse" x1="73.0178" y1="85.6288" x2="70.8822"
				y2="8.0387">
				<stop offset="9.497459e-03" style="stop-color:#808080" />
				<stop offset="1.153069e-02" style="stop-color:#808080" />
				<stop offset="0.4781" style="stop-color:#BDBDBD" />
				<stop offset="0.8205" style="stop-color:#E4E4E4" />
				<stop offset="1" style="stop-color:#F2F2F2" />
			</linearGradient>
			<path class="st1" d="M77.8,95.4c-1.5,0.1-3.1,0.1-4.7,0.1c-1.5,0-2.9-0.1-4.4-0.1c1.5,0.1,2.9,0.2,4.5,0.2
			C74.8,95.7,76.3,95.6,77.8,95.4z" />
			<linearGradient id="SVGID_2_" gradientUnits="userSpaceOnUse" x1="34.3062" y1="50.6616" x2="112.1022"
				y2="50.6616">
				<stop offset="9.497459e-03" style="stop-color:#808080" />
				<stop offset="1.153069e-02" style="stop-color:#808080" />
				<stop offset="0.4781" style="stop-color:#BDBDBD" />
				<stop offset="0.8205" style="stop-color:#E4E4E4" />
				<stop offset="1" style="stop-color:#F2F2F2" />
			</linearGradient>
			<circle class="st2" cx="73.2" cy="50.7" r="38.9" />
			<linearGradient id="SVGID_3_" gradientUnits="userSpaceOnUse" x1="13.0937" y1="88.9437" x2="14.0863"
				y2="10.5232">
				<stop offset="9.497459e-03" style="stop-color:#808080" />
				<stop offset="1.153069e-02" style="stop-color:#808080" />
				<stop offset="0.4781" style="stop-color:#BDBDBD" />
				<stop offset="0.8205" style="stop-color:#E4E4E4" />
				<stop offset="1" style="stop-color:#F2F2F2" />
			</linearGradient>
			<path class="st3" d="M19.5,32.9c-4.7,5.3-8.7,11.2-11.9,17.6c3.2,6.4,7.1,12.2,11.8,17.5c-1.6-5.5-2.4-11.4-2.4-17.4
			C16.9,44.5,17.8,38.5,19.5,32.9z" />
			<linearGradient id="SVGID_4_" gradientUnits="userSpaceOnUse" x1="132.2415" y1="90.629" x2="133.2342"
				y2="12.2087">
				<stop offset="9.497459e-03" style="stop-color:#808080" />
				<stop offset="1.153069e-02" style="stop-color:#808080" />
				<stop offset="0.4781" style="stop-color:#BDBDBD" />
				<stop offset="0.8205" style="stop-color:#E4E4E4" />
				<stop offset="1" style="stop-color:#F2F2F2" />
			</linearGradient>
			<path class="st4" d="M127.1,67.9c4.6-5.2,8.5-11.1,11.6-17.4c-3.2-6.4-7.1-12.2-11.8-17.5c1.6,5.6,2.5,11.5,2.5,17.6
			C129.5,56.6,128.6,62.4,127.1,67.9z" />
			<linearGradient id="SVGID_7_" gradientUnits="userSpaceOnUse" x1="72.7089" y1="89.7869" x2="73.7016"
				y2="11.3666">
				<stop offset="9.497459e-03" style="stop-color:#808080" />
				<stop offset="1.153069e-02" style="stop-color:#808080" />
				<stop offset="0.4781" style="stop-color:#BDBDBD" />
				<stop offset="0.8205" style="stop-color:#E4E4E4" />
				<stop offset="1" style="stop-color:#F2F2F2" />
			</linearGradient>
			<path class="st7" d="M77.8,95.4c22.7-2.3,40.4-21.5,40.4-44.8c0-24.9-20.1-45-45-45c-24.9,0-45,20.1-45,45
			C28.2,74,46,93.2,68.8,95.4c1.5,0.1,2.9,0.1,4.4,0.1C74.7,95.6,76.3,95.5,77.8,95.4z M34.3,50.7c0-21.5,17.4-38.9,38.9-38.9
			c21.5,0,38.9,17.4,38.9,38.9c0,21.5-17.4,38.9-38.9,38.9C51.7,89.6,34.3,72.1,34.3,50.7z" />
		</g>
		<g>
			<linearGradient id="SVGID_9_" gradientUnits="userSpaceOnUse" x1="72.5578" y1="82.4607" x2="73.7987"
				y2="21.4119">
				<stop offset="9.497460e-03" style="stop-color:#003F8A" />
				<stop offset="0.2166" style="stop-color:#0F4E9B" />
				<stop offset="0.7298" style="stop-color:#2F71C1" />
				<stop offset="1" style="stop-color:#3C7ED0" />
			</linearGradient>
			<path class="st9" d="M87.2,46.8c0.3,1.2,0.5,2.5,0.5,3.9c0,8-6.5,14.5-14.5,14.5s-14.5-6.5-14.5-14.5s6.5-14.5,14.5-14.5
			c2,0,3.9,0.4,5.6,1.1c0.3-2.1,1.5-4,3.1-5.3c-2.7-1.2-5.6-2-8.7-2c-11.4,0-20.6,9.2-20.6,20.6s9.2,20.6,20.6,20.6
			c11.4,0,20.6-9.2,20.6-20.6c0-2.2-0.3-4.3-1-6.3C91.4,45.8,89.4,46.8,87.2,46.8z" />
			<linearGradient id="SVGID_10_" gradientUnits="userSpaceOnUse" x1="82.7383" y1="38.5475" x2="91.2521"
				y2="38.5475">
				<stop offset="4.664910e-02" style="stop-color:#00AECE" />
				<stop offset="0.1237" style="stop-color:#00B9DB" />
				<stop offset="0.2806" style="stop-color:#00CAEF" />
				<stop offset="0.4382" style="stop-color:#00D5FB" />
				<stop offset="0.5964" style="stop-color:#00D8FF" />
				<stop offset="0.9955" style="stop-color:#62E1FF" />
			</linearGradient>
			<circle class="st10" cx="87" cy="38.5" r="4.3" />
		</g>
		<g>
			<path class="st53" d="M4.5,119.1H13v27.3h18.5v6.3H4.5V119.1z" />
			<path class="st53" d="M48.5,151c-3.1-1.5-5.5-3.6-7.2-6.2c-1.7-2.6-2.6-5.6-2.6-8.9s0.9-6.3,2.6-8.9c1.7-2.6,4.2-4.7,7.2-6.2
			c3.1-1.5,6.5-2.3,10.4-2.3c3.8,0,7.3,0.8,10.3,2.3c3.1,1.5,5.5,3.6,7.2,6.2c1.8,2.6,2.6,5.6,2.6,8.9s-0.9,6.3-2.6,8.9
			c-1.8,2.6-4.2,4.7-7.2,6.2c-3.1,1.5-6.5,2.3-10.3,2.3C55.1,153.3,51.6,152.5,48.5,151z M64.8,145.3c1.8-0.9,3.1-2.2,4.1-3.8
			c1-1.6,1.5-3.5,1.5-5.6s-0.5-3.9-1.5-5.6c-1-1.6-2.4-2.9-4.1-3.8c-1.8-0.9-3.7-1.4-5.9-1.4c-2.2,0-4.2,0.5-5.9,1.4
			c-1.8,0.9-3.1,2.2-4.1,3.8c-1,1.6-1.5,3.5-1.5,5.6s0.5,3.9,1.5,5.6c1,1.6,2.4,2.9,4.1,3.8c1.8,0.9,3.7,1.4,5.9,1.4
			C61.1,146.6,63,146.2,64.8,145.3z" />
			<path class="st53" d="M98.3,151c-3-1.5-5.4-3.6-7.2-6.2c-1.7-2.6-2.6-5.6-2.6-9s0.9-6.3,2.6-9c1.7-2.6,4.1-4.7,7.2-6.2
			c3-1.5,6.5-2.2,10.3-2.2c3.2,0,6.1,0.5,8.7,1.5c2.6,1,4.8,2.5,6.5,4.4l-5.5,4.6c-2.5-2.6-5.6-3.9-9.3-3.9c-2.3,0-4.3,0.5-6.1,1.4
			s-3.2,2.2-4.2,3.8c-1,1.6-1.5,3.5-1.5,5.6s0.5,3.9,1.5,5.6c1,1.6,2.4,2.9,4.2,3.8s3.8,1.4,6.1,1.4c3.7,0,6.8-1.3,9.3-4l5.5,4.6
			c-1.8,2-3.9,3.4-6.5,4.5s-5.5,1.5-8.7,1.5C104.8,153.3,101.4,152.5,98.3,151z" />
			<path class="st53" d="M134.7,122.1c-1-0.8-1.4-1.8-1.4-3c0-1.2,0.5-2.2,1.4-3c1-0.8,2.2-1.2,3.7-1.2c1.5,0,2.7,0.4,3.7,1.2
			s1.4,1.7,1.4,2.9c0,1.2-0.5,2.3-1.4,3.1s-2.2,1.2-3.7,1.2C136.8,123.3,135.6,122.9,134.7,122.1z M134.2,126.9h8.2v25.8h-8.2V126.9
			z" />
		</g>
		<g>
			<path class="st54" d="M6,177.3c-0.9-0.3-1.6-0.7-2.1-1.3l0.6-1.1c0.5,0.5,1.1,0.9,1.9,1.2c0.8,0.3,1.6,0.5,2.5,0.5
			c1.2,0,2.1-0.2,2.7-0.7c0.6-0.4,0.9-1,0.9-1.7c0-0.5-0.2-1-0.5-1.3c-0.3-0.3-0.7-0.6-1.2-0.7c-0.5-0.2-1.1-0.4-2-0.6
			c-1-0.3-1.8-0.5-2.4-0.7c-0.6-0.2-1.1-0.6-1.5-1.1c-0.4-0.5-0.6-1.1-0.6-2c0-0.7,0.2-1.3,0.5-1.8c0.4-0.6,0.9-1,1.6-1.3
			c0.7-0.3,1.7-0.5,2.8-0.5c0.8,0,1.5,0.1,2.3,0.3c0.7,0.2,1.4,0.5,1.9,0.9l-0.5,1.1c-0.6-0.4-1.2-0.6-1.8-0.8
			c-0.6-0.2-1.3-0.3-1.9-0.3c-1.2,0-2.1,0.2-2.7,0.7c-0.6,0.5-0.9,1-0.9,1.8c0,0.5,0.2,1,0.5,1.3c0.3,0.3,0.7,0.6,1.2,0.7
			c0.5,0.2,1.2,0.4,2,0.6c1,0.2,1.8,0.5,2.4,0.7c0.6,0.2,1.1,0.6,1.5,1.1c0.4,0.5,0.6,1.1,0.6,1.9c0,0.7-0.2,1.3-0.5,1.8
			c-0.4,0.6-0.9,1-1.7,1.3c-0.8,0.3-1.7,0.5-2.8,0.5C7.9,177.8,7,177.6,6,177.3z" />
			<path class="st54" d="M25.5,173.1H17c0.1,1,0.5,1.9,1.2,2.5s1.6,1,2.8,1c0.6,0,1.2-0.1,1.7-0.3c0.5-0.2,1-0.6,1.4-1l0.8,0.9
			c-0.4,0.5-1,0.9-1.7,1.2c-0.7,0.3-1.4,0.4-2.2,0.4c-1,0-1.9-0.2-2.7-0.7s-1.4-1-1.9-1.8c-0.4-0.8-0.7-1.7-0.7-2.6
			c0-1,0.2-1.9,0.6-2.6c0.4-0.8,1-1.4,1.8-1.8s1.6-0.7,2.5-0.7s1.8,0.2,2.5,0.7c0.7,0.4,1.3,1,1.7,1.8c0.4,0.8,0.6,1.7,0.6,2.7
			L25.5,173.1z M18.2,169.6c-0.7,0.6-1,1.4-1.1,2.4h7.1c-0.1-1-0.5-1.8-1.1-2.4c-0.7-0.6-1.5-0.9-2.5-0.9
			C19.6,168.7,18.8,169,18.2,169.6z" />
			<path class="st54" d="M29.8,177.1c-0.8-0.4-1.4-1-1.8-1.8s-0.7-1.7-0.7-2.7c0-1,0.2-1.9,0.7-2.6c0.4-0.8,1.1-1.4,1.8-1.8
			s1.7-0.7,2.7-0.7c0.9,0,1.6,0.2,2.3,0.5s1.2,0.8,1.6,1.5l-1,0.7c-0.3-0.5-0.8-0.9-1.3-1.1c-0.5-0.2-1.1-0.4-1.7-0.4
			c-0.7,0-1.4,0.2-2,0.5c-0.6,0.3-1,0.8-1.4,1.4c-0.3,0.6-0.5,1.3-0.5,2c0,0.8,0.2,1.5,0.5,2.1c0.3,0.6,0.8,1.1,1.4,1.4
			c0.6,0.3,1.2,0.5,2,0.5c0.6,0,1.2-0.1,1.7-0.4c0.5-0.2,0.9-0.6,1.3-1.1l1,0.7c-0.4,0.7-0.9,1.1-1.6,1.5c-0.7,0.3-1.5,0.5-2.3,0.5
			C31.4,177.8,30.6,177.6,29.8,177.1z" />
			<path class="st54" d="M48.1,167.6v10.1h-1.3v-1.8c-0.4,0.6-0.8,1.1-1.5,1.4c-0.6,0.3-1.3,0.5-2.1,0.5c-1.3,0-2.4-0.4-3.1-1.1
			c-0.8-0.7-1.1-1.8-1.1-3.2v-5.8h1.4v5.7c0,1.1,0.3,1.9,0.8,2.4c0.5,0.5,1.3,0.8,2.2,0.8c1.1,0,1.9-0.3,2.5-1
			c0.6-0.6,0.9-1.5,0.9-2.7v-5.3H48.1z" />
			<path class="st54" d="M54.7,168.1c0.6-0.3,1.4-0.5,2.3-0.5v1.3l-0.3,0c-1.1,0-1.9,0.3-2.5,1c-0.6,0.7-0.9,1.6-0.9,2.7v5.1h-1.4
			v-10.1h1.3v2C53.6,168.9,54,168.4,54.7,168.1z" />
			<path class="st54" d="M59.4,165.1c-0.2-0.2-0.3-0.4-0.3-0.7c0-0.3,0.1-0.5,0.3-0.7s0.4-0.3,0.7-0.3c0.3,0,0.5,0.1,0.7,0.3
			c0.2,0.2,0.3,0.4,0.3,0.7c0,0.3-0.1,0.5-0.3,0.7c-0.2,0.2-0.4,0.3-0.7,0.3C59.9,165.4,59.6,165.3,59.4,165.1z M59.5,167.6h1.4
			v10.1h-1.4V167.6z" />
			<path class="st54" d="M69.9,177.1c-0.3,0.2-0.6,0.4-0.9,0.5c-0.4,0.1-0.8,0.2-1.2,0.2c-0.9,0-1.7-0.3-2.2-0.8
			c-0.5-0.5-0.8-1.2-0.8-2.2v-6.1H63v-1.1h1.8v-2.2h1.4v2.2h3.1v1.1h-3.1v6c0,0.6,0.1,1.1,0.4,1.4c0.3,0.3,0.7,0.5,1.3,0.5
			c0.3,0,0.6,0,0.8-0.1c0.3-0.1,0.5-0.2,0.7-0.4L69.9,177.1z" />
			<path class="st54" d="M80.7,167.6l-5,11.3c-0.4,0.9-0.9,1.6-1.4,2s-1.2,0.6-1.9,0.6c-0.5,0-0.9-0.1-1.4-0.2
			c-0.4-0.2-0.8-0.4-1.1-0.7l0.6-1c0.5,0.5,1.1,0.8,1.8,0.8c0.5,0,0.9-0.1,1.2-0.4c0.3-0.3,0.6-0.7,0.9-1.3l0.4-1l-4.5-10.1h1.4
			l3.8,8.6l3.8-8.6H80.7z" />
			<path class="st54" d="M96.9,165.5c1,0.8,1.5,1.9,1.5,3.4s-0.5,2.5-1.5,3.4c-1,0.8-2.3,1.2-4,1.2h-3.6v4.2h-1.4v-13.4h5
			C94.6,164.3,95.9,164.7,96.9,165.5z M95.9,171.3c0.7-0.6,1.1-1.4,1.1-2.5c0-1.1-0.4-1.9-1.1-2.5s-1.7-0.9-3-0.9h-3.6v6.7h3.6
			C94.2,172.2,95.2,171.9,95.9,171.3z" />
			<path class="st54" d="M102.6,177.1c-0.8-0.4-1.4-1-1.8-1.8c-0.4-0.8-0.7-1.7-0.7-2.6c0-1,0.2-1.9,0.7-2.6c0.4-0.8,1.1-1.4,1.8-1.8
			s1.7-0.7,2.6-0.7s1.8,0.2,2.6,0.7s1.4,1,1.8,1.8c0.4,0.8,0.7,1.7,0.7,2.6c0,1-0.2,1.9-0.7,2.6c-0.4,0.8-1.1,1.4-1.8,1.8
			s-1.7,0.7-2.6,0.7S103.4,177.6,102.6,177.1z M107.1,176.1c0.6-0.3,1-0.8,1.3-1.4s0.5-1.3,0.5-2s-0.2-1.4-0.5-2
			c-0.3-0.6-0.8-1.1-1.3-1.4c-0.6-0.3-1.2-0.5-1.9-0.5s-1.4,0.2-1.9,0.5c-0.6,0.3-1,0.8-1.3,1.4c-0.3,0.6-0.5,1.3-0.5,2
			s0.2,1.4,0.5,2c0.3,0.6,0.8,1.1,1.3,1.4c0.6,0.3,1.2,0.5,1.9,0.5S106.6,176.4,107.1,176.1z" />
			<path class="st54" d="M115.8,168.1c0.6-0.3,1.4-0.5,2.3-0.5v1.3l-0.3,0c-1.1,0-1.9,0.3-2.5,1c-0.6,0.7-0.9,1.6-0.9,2.7v5.1h-1.4
			v-10.1h1.3v2C114.7,168.9,115.2,168.4,115.8,168.1z" />
			<path class="st54" d="M126.4,177.1c-0.3,0.2-0.6,0.4-0.9,0.5c-0.4,0.1-0.8,0.2-1.2,0.2c-0.9,0-1.7-0.3-2.2-0.8
			c-0.5-0.5-0.8-1.2-0.8-2.2v-6.1h-1.8v-1.1h1.8v-2.2h1.4v2.2h3.1v1.1h-3.1v6c0,0.6,0.2,1.1,0.5,1.4s0.7,0.5,1.3,0.5
			c0.3,0,0.6,0,0.8-0.1c0.3-0.1,0.5-0.2,0.7-0.4L126.4,177.1z" />
			<path class="st54" d="M135.4,168.5c0.7,0.7,1.1,1.6,1.1,2.9v6.2h-1.3v-1.6c-0.3,0.5-0.8,0.9-1.3,1.2c-0.6,0.3-1.3,0.4-2.1,0.4
			c-1.1,0-2-0.3-2.7-0.8c-0.7-0.5-1-1.2-1-2.1c0-0.9,0.3-1.5,0.9-2.1s1.6-0.8,3-0.8h3.2v-0.6c0-0.9-0.2-1.5-0.7-2
			c-0.5-0.5-1.2-0.7-2.1-0.7c-0.6,0-1.3,0.1-1.8,0.3c-0.6,0.2-1.1,0.5-1.5,0.9l-0.6-1c0.5-0.4,1.1-0.8,1.8-1s1.5-0.4,2.3-0.4
			C133.7,167.5,134.7,167.9,135.4,168.5z M133.8,176.2c0.5-0.4,1-0.9,1.2-1.5V173h-3.2c-1.7,0-2.6,0.6-2.6,1.8
			c0,0.6,0.2,1.1,0.7,1.4c0.4,0.3,1.1,0.5,1.9,0.5C132.6,176.7,133.3,176.5,133.8,176.2z" />
			<path class="st54" d="M140.1,163.5h1.4v14.2h-1.4V163.5z" />
		</g>
	</g>
</svg>